# xmcd
#
# Track frame offsets: 
#        150
#        13281
#        26273
#        42783
#        55705
#        73357
#        81515
#        94716
#        105124
#        120875
#        134494
#
# Disc length: 2025 seconds
#
# Revision: 0
# Processed by: cddbd v1.5.1PL2 Copyright (c) Steve Scherf et al.
# Submitted via: ExactAudioCopy v0.95b3
#
DISCID=8707e70b
DTITLE=Colin Goss - Steelin' Time
DYEAR=1900
DGENRE=Country
TTITLE0=Making The Rounds
TTITLE1=Wild Orchids
TTITLE2=Last Date
TTITLE3=San Antonio Stroll
TTITLE4=For The Good Times
TTITLE5=Steel Guitar Rag
TTITLE6=Southern Sunday
TTITLE7=It's Such A Pretty World Today
TTITLE8=Blue Jade
TTITLE9=Moon River
TTITLE10=Canadian Sunset
EXTD=
EXTT0=
EXTT1=
EXTT2=
EXTT3=
EXTT4=
EXTT5=
EXTT6=
EXTT7=
EXTT8=
EXTT9=
EXTT10=
PLAYORDER=
